Coordinates
version=1
nRows=16
nColumns=40
inDegrees=yes

Units are S.I. units (second, meters, Newtons, ...)
Angles are in degrees.

endheader
time	pelvis_tilt	pelvis_list	pelvis_rotation	pelvis_tx	pelvis_ty	pelvis_tz	hip_flexion_r	hip_adduction_r	hip_rotation_r	knee_angle_r	knee_angle_r_beta	ankle_angle_r	subtalar_angle_r	mtp_angle_r	hip_flexion_l	hip_adduction_l	hip_rotation_l	knee_angle_l	knee_angle_l_beta	ankle_angle_l	subtalar_angle_l	mtp_angle_l	lumbar_extension	lumbar_bending	lumbar_rotation	arm_flex_r	arm_add_r	arm_rot_r	elbow_flex_r	pro_sup_r	wrist_flex_r	wrist_dev_r	arm_flex_l	arm_add_l	arm_rot_l	elbow_flex_l	pro_sup_l	wrist_flex_l	wrist_dev_l
      0.00000000	     -2.04648751	     -0.40601531	      8.73949997	     -0.95449909	      0.90126426	     -1.45416587	     25.70934414	     -3.42160472	    -12.57673668	    -61.76152666	     -1.07794199	      0.37510843	    -16.53100300	     20.35331666	      9.65420565	      1.44576092	     11.38145550	    -26.94839901	     -0.47033829	     10.46852805	      2.45869575	     -2.13037960	     -5.42784004	     -3.18184833	     -7.46086293	     -6.84667195	     -8.51348562	     -9.11795095	     32.48084141	     89.95437384	      0.00000000	      0.00000000	     -0.94037521	     12.43753766	     22.87990782	     40.26284606	     89.95437384	      0.00000000	      0.00000000
      0.01000000	     -2.36711262	     -0.23788258	      8.95999772	     -0.94511182	      0.90061725	     -1.45623833	     26.82778887	     -3.68513549	    -12.77901711	    -59.82126673	     -1.04407807	      1.00045683	    -16.41641734	     20.03185541	      9.22195760	      1.17911476	     11.57707463	    -26.81693105	     -0.46804374	     10.62940284	      2.38230022	     -2.13034074	     -5.17585793	     -3.34352182	     -7.66620155	     -7.30803157	     -8.48290321	     -9.30564737	     32.03013534	     89.95437384	      0.00000000	      0.00000000	     -0.34408867	     12.75521058	     22.98640422	     41.34457198	     89.95437384	      0.00000000	      0.00000000
      0.02000000	     -1.84305510	     -0.38667706	      9.32707107	     -0.93510545	      0.90135057	     -1.45779910	     26.68697227	     -3.32841005	    -13.14232575	    -57.20840186	     -0.99847497	      2.12606771	    -16.66819849	     20.19560288	      7.68390871	      1.48821046	     11.63771296	    -26.25194183	     -0.45818282	     10.78215844	      1.58967354	     -2.30769691	     -5.81639573	     -3.10223667	     -8.29676971	     -7.08822308	     -8.15183890	    -10.23195457	     30.73862844	     89.95437384	      0.00000000	      0.00000000	     -0.14809741	     13.11604944	     23.48876511	     43.04410032	     89.95437384	      0.00000000	      0.00000000
      0.03000000	     -2.02998583	     -0.34252522	      9.72458774	     -0.92576729	      0.90071226	     -1.45963702	     27.42411159	     -3.44788353	    -13.53639046	    -54.75199785	     -0.95560263	      2.99405363	    -16.79275665	     20.10150182	      7.12246738	      1.41674658	     11.60608765	    -26.04373969	     -0.45454901	     10.91767041	      1.15919292	     -2.39215829	     -5.74001740	     -3.14516938	     -8.81679090	     -7.24118561	     -8.01512625	    -10.61237677	     29.87589732	     89.95437384	      0.00000000	      0.00000000	      0.18315318	     13.51704709	     23.66078176	     44.44225885	     89.95437384	      0.00000000	      0.00000000
      0.04000000	     -2.21677299	     -0.25540702	     10.02578763	     -0.91607432	      0.90010348	     -1.46118852	     28.05706571	     -3.55759095	    -13.75664410	    -51.99109912	     -0.90741586	      3.52974798	    -16.72780760	     20.03361479	      6.47007976	      1.35907294	     11.74232615	    -25.75980546	     -0.44959342	     11.05454074	      0.75832966	     -2.46220860	     -5.61543481	     -3.24793746	     -9.26897041	     -7.43071843	     -7.87554163	    -10.94548161	     29.13014956	     89.95437384	      0.00000000	      0.00000000	      0.51980362	     13.93556759	     23.86100885	     45.64091833	     89.95437384	      0.00000000	      0.00000000
      0.05000000	     -1.96793957	     -0.30636867	     10.36676769	     -0.90591805	      0.90010188	     -1.46259556	     27.98817353	     -3.49781462	    -14.35013107	    -48.82301843	     -0.85212242	      3.83168314	    -16.70619611	     20.17102376	      5.35277527	      1.59585097	     11.90665780	    -25.50278080	     -0.44510749	     11.07019782	     -0.01650215	     -2.60975598	     -5.95470909	     -3.13655302	     -9.67281941	     -7.49858959	     -7.67770723	    -11.52259072	     28.14116031	     89.95437384	      0.00000000	      0.00000000	      0.88502759	     14.25961174	     24.21286846	     46.94372035	     89.95437384	      0.00000000	      0.00000000
      0.06000000	     -1.81654211	     -0.32923007	     10.56555075	     -0.89579425	      0.89980094	     -1.46382763	     27.95746593	     -3.42987555	    -14.79472195	    -45.56577497	     -0.79527280	      4.16704759	    -16.38074130	     20.24847278	      4.35135693	      1.85883048	     12.42354582	    -25.31424838	     -0.44181698	     10.98459339	     -1.08830728	     -2.91362392	     -6.17359196	     -3.03576785	     -9.89863796	     -7.74265108	     -7.58296583	    -11.85620279	     27.59150098	     89.95437384	      0.00000000	      0.00000000	      1.36843069	     14.60441045	     24.39336984	     47.95257586	     89.95437384	      0.00000000	      0.00000000
      0.07000000	     -2.34434812	      0.06970312	     10.66181122	     -0.88622585	      0.89831035	     -1.46522129	     28.87138755	     -4.05460529	    -15.17347724	    -42.76289811	     -0.74635337	      4.45701792	    -16.00134956	     20.03616740	      4.12301346	      1.39582675	     12.68365622	    -25.30102535	     -0.44158620	     11.11655093	     -1.15527410	     -2.93059602	     -5.74433527	     -3.51893646	     -9.93204138	     -8.24556645	     -7.54311106	    -11.87147137	     27.24524093	     89.95437384	      0.00000000	      0.00000000	      1.90683499	     14.94862938	     24.40172693	     48.84270918	     89.95437384	      0.00000000	      0.00000000
      0.08000000	     -2.06125331	     -0.16488558	     11.12476953	     -0.87607381	      0.89831467	     -1.46620511	     28.35332094	     -3.61570601	    -15.45946134	    -38.86979094	     -0.67840583	      4.55379434	    -15.51681820	     20.05172750	      3.05721591	      1.84230470	     12.37285150	    -25.06912289	     -0.43753874	     11.00605622	     -1.72305756	     -3.08459080	     -6.11596596	     -3.19852295	    -10.56353726	     -8.04288269	     -7.30856309	    -12.40903550	     26.04135996	     89.95437384	      0.00000000	      0.00000000	      2.22248455	     15.34255598	     24.70941902	     49.86641055	     89.95437384	      0.00000000	      0.00000000
      0.09000000	     -2.21627172	     -0.12312950	     11.42032074	     -0.86613981	      0.89747946	     -1.46730265	     28.48998620	     -3.68008794	    -15.82522965	    -35.42889133	     -0.61835080	      4.73860076	    -14.73174515	     19.81929066	      2.46015550	      1.90759003	     12.40498210	    -24.95803871	     -0.43559995	     11.06232081	     -2.11317940	     -3.23263860	     -6.03973906	     -3.22646593	    -10.88808154	     -8.22892892	     -7.21418017	    -12.53911731	     25.39742277	     89.95437384	      0.00000000	      0.00000000	      2.71194641	     15.68444050	     24.81521599	     50.57476856	     89.95437384	      0.00000000	      0.00000000
      0.10000000	     -2.59425820	      0.01581168	     11.65720373	     -0.85642255	      0.89627088	     -1.46836636	     28.85703614	     -3.89948770	    -16.12444220	    -32.07095955	     -0.55974384	      5.03790185	    -13.67671891	     19.51930074	      2.10418340	      1.77793877	     12.32330834	    -24.86432661	     -0.43396437	     11.02575005	     -2.36545299	     -3.31691837	     -5.75436621	     -3.39465818	    -11.14278395	     -8.41163460	     -7.14170287	    -12.62142930	     24.74149427	     89.95437384	      0.00000000	      0.00000000	      3.19626561	     16.00780811	     24.96964817	     51.24199908	     89.95437384	      0.00000000	      0.00000000
      0.11000000	     -3.05038586	      0.24595747	     11.95581126	     -0.84671694	      0.89494133	     -1.46948024	     29.27095709	     -4.26077410	    -16.43365385	    -28.85288443	     -0.50357783	      5.52118866	    -12.57310790	     19.23777664	      1.86722985	      1.55261859	     12.24894880	    -24.86243776	     -0.43393140	     10.94431987	     -2.53293426	     -3.35373804	     -5.42005386	     -3.67796031	    -11.46048547	     -8.69246258	     -7.05172163	    -12.66244841	     24.31101670	     89.95437384	      0.00000000	      0.00000000	      3.68164227	     16.34321327	     25.06014151	     51.79222023	     89.95437384	      0.00000000	      0.00000000
      0.12000000	     -2.91183196	      0.11443573	     12.30649028	     -0.83620318	      0.89433877	     -1.47047760	     28.89554564	     -4.31886628	    -17.89974006	    -25.62971848	     -0.44732297	      6.26004138	    -10.20534052	     18.11881303	      0.97615978	      1.94550792	     12.32649312	    -24.76964067	     -0.43231178	     10.73221624	     -3.30044290	     -3.64078022	     -5.58478757	     -3.41822548	    -11.76620032	     -8.83136068	     -6.99295777	    -12.84296591	     23.69263225	     89.95437384	      0.00000000	      0.00000000	      4.20606590	     16.51179907	     25.33360644	     52.26608069	     89.95437384	      0.00000000	      0.00000000
      0.13000000	     -3.39371064	      0.28813787	     12.54959265	     -0.82632699	      0.89282546	     -1.47131180	     29.43156580	     -4.61860674	    -18.39786789	    -22.97466032	     -0.40098347	      6.58674021	     -9.15643307	     17.83800981	      0.81478482	      1.79639382	     12.23042818	    -24.85469776	     -0.43379631	     10.59787130	     -3.41275168	     -3.67886799	     -5.17940355	     -3.64111270	    -11.96467792	     -9.10656951	     -6.92481491	    -12.79456102	     23.23422581	     89.95437384	      0.00000000	      0.00000000	      4.71626222	     16.77008238	     25.42292709	     52.61024382	     89.95437384	      0.00000000	      0.00000000
      0.14000000	     -3.35025765	      0.11422148	     12.96546471	     -0.81567980	      0.89190173	     -1.47218698	     29.35842432	     -4.77050687	    -20.45806396	    -20.70581086	     -0.36138457	      6.88463084	     -6.70323903	     16.51484091	      0.22082746	      2.29158774	     12.30677038	    -25.12012608	     -0.43842891	     10.46326465	     -4.02922488	     -3.96883740	     -5.22042566	     -3.34763009	    -12.28953544	     -9.30097698	     -6.89085929	    -12.88944347	     22.75587404	     89.95437384	      0.00000000	      0.00000000	      5.21824786	     16.90108375	     25.63133429	     52.92587241	     89.95437384	      0.00000000	      0.00000000
      0.15000000	     -3.69995405	      0.35262703	     12.98352073	     -0.80524140	      0.89033280	     -1.47260410	     30.09912708	     -5.11716421	    -21.13571621	    -19.47914814	     -0.33997527	      7.14987500	     -6.53154836	     16.38327115	     -0.16173336	      2.13790648	     12.51789568	    -25.18684369	     -0.43959335	     10.47205280	     -4.04510126	     -3.97863861	     -4.92828439	     -3.62025736	    -12.16838742	     -9.62692758	     -6.84314821	    -12.83142060	     22.42765159	     89.95437384	      0.00000000	      0.00000000	      5.71723933	     17.07893542	     25.67703598	     53.21682879	     89.95437384	      0.00000000	      0.00000000
